<svg width="25" height="107" viewBox="0 0 25 107" fill="none" xmlns="http://www.w3.org/2000/svg">
<path d="M0 53.5C0 60.3068 5.53931 65.8462 12.3462 65.8462C19.153 65.8462 24.6923 60.3068 24.6923 53.5C24.6923 46.6932 19.153 41.1538 12.3462 41.1538C5.53931 41.1538 0 46.6932 0 53.5ZM0 94.6538C0 101.461 5.53931 107 12.3462 107C19.153 107 24.6923 101.461 24.6923 94.6538C24.6923 87.847 19.153 82.3077 12.3462 82.3077C5.53931 82.3077 0 87.847 0 94.6538ZM0 12.3462C0 19.153 5.53931 24.6923 12.3462 24.6923C19.153 24.6923 24.6923 19.153 24.6923 12.3462C24.6923 5.53931 19.153 0 12.3462 0C5.53931 0 0 5.53931 0 12.3462Z" fill="#7E7E8A"/>
</svg>
