<svg width="35" height="35" viewBox="0 0 35 35" fill="none" xmlns="http://www.w3.org/2000/svg">
<path d="M17.4981 34.9962C27.162 34.9962 34.9962 27.162 34.9962 17.4981C34.9962 7.83417 27.162 0 17.4981 0C7.83417 0 0 7.83417 0 17.4981C0 27.162 7.83417 34.9962 17.4981 34.9962Z" fill="#3FE39E"/>
<path d="M29.0469 4.35864C31.9816 7.69713 33.5354 12.0276 33.3926 16.4704C33.2498 20.9131 31.4211 25.1349 28.278 28.278C25.1349 31.4211 20.9131 33.2498 16.4703 33.3926C12.0276 33.5355 7.6971 31.9816 4.35861 29.0469C5.93731 30.8453 7.8682 32.3007 10.0318 33.3231C12.1955 34.3455 14.5459 34.9131 16.9377 34.9908C19.3294 35.0685 21.7117 34.6547 23.9372 33.775C26.1626 32.8952 28.1839 31.5682 29.8761 29.8761C31.5682 28.184 32.8952 26.1627 33.7749 23.9372C34.6547 21.7118 35.0685 19.3295 34.9908 16.9377C34.913 14.5459 34.3454 12.1955 33.3231 10.0319C32.3007 7.86823 30.8453 5.93734 29.0469 4.35864Z" fill="#29C986"/>
</svg>
